<svg width="78" height="78" viewBox="0 0 78 78" fill="none" xmlns="http://www.w3.org/2000/svg">
<rect x="2.5" y="2.5" width="73" height="73" stroke="#323747" stroke-width="5"/>
<path d="M59.9065 12.8676C59.0728 17.7983 59.5615 21.4886 59.947 25.7348C60.378 30.4833 60.6902 36.0032 58.9256 44.9254C56.3901 52.9104 51.8863 59.244 47.2019 63.1855C44.8571 65.1584 42.4817 66.5201 40.3007 67.1986C38.1174 67.8779 36.1675 67.8626 34.627 67.1444C31.5355 65.7028 29.739 61.4359 29.873 55.4174C30.0058 49.4545 32.043 41.9626 36.3657 34.3905C40.8772 28.5636 45.1394 25.18 49.2384 22.0796C52.9021 19.3085 56.4599 16.7441 59.9065 12.8676Z" fill="#323743" stroke="white"/>
<path d="M39.6953 9.58398C41.0026 13.4654 42.7902 16.2394 44.6533 19.376C46.9909 23.3113 49.5341 27.9463 51.6504 36.3672C52.686 44.2503 51.3197 51.4876 48.834 56.7266C47.5875 59.3536 46.075 61.4456 44.4775 62.8682C42.8768 64.2936 41.2479 64.9999 39.7363 65C36.693 65 33.4511 62.2575 31.0957 57.0088C28.7842 51.8577 27.4952 44.6046 28.1855 36.3359C29.7675 29.5046 32.1283 24.8765 34.4805 20.5254C36.3594 17.0497 38.2569 13.706 39.6953 9.58398Z" fill="#323743" stroke="white" stroke-width="2"/>
<path d="M18.9754 12.8267C19.1112 17.0867 18.3862 20.4239 17.7167 24.1501C16.8796 28.8086 16.0935 34.224 17.0629 43.1888C18.8759 51.2625 22.7622 57.8675 27.0102 62.127C29.1395 64.2622 31.3334 65.782 33.3708 66.6169C35.4129 67.4536 37.2233 67.5757 38.6675 67.0502C41.5775 65.991 43.7094 62.179 44.0973 56.2196C44.4779 50.3725 43.1285 42.8274 39.5226 34.982C35.5781 28.8564 31.6721 25.1552 27.8757 21.7245C24.8324 18.9743 21.821 16.3649 18.9754 12.8267Z" fill="#323743" stroke="white" stroke-width="2"/>
</svg>
